Coordinates
version=1
nRows=8
nColumns=40
inDegrees=yes

Units are S.I. units (second, meters, Newtons, ...)
Angles are in degrees.

endheader
time	pelvis_tilt	pelvis_list	pelvis_rotation	pelvis_tx	pelvis_ty	pelvis_tz	hip_flexion_r	hip_adduction_r	hip_rotation_r	knee_angle_r	knee_angle_r_beta	ankle_angle_r	subtalar_angle_r	mtp_angle_r	hip_flexion_l	hip_adduction_l	hip_rotation_l	knee_angle_l	knee_angle_l_beta	ankle_angle_l	subtalar_angle_l	mtp_angle_l	lumbar_extension	lumbar_bending	lumbar_rotation	arm_flex_r	arm_add_r	arm_rot_r	elbow_flex_r	pro_sup_r	wrist_flex_r	wrist_dev_r	arm_flex_l	arm_add_l	arm_rot_l	elbow_flex_l	pro_sup_l	wrist_flex_l	wrist_dev_l
     21.53692857	     -3.81286689	     -3.30451052	     -3.43440264	      0.84529796	      0.92238860	      0.46042574	     28.46010910	     -1.87395983	    -10.31092929	     22.16329022	     22.16329022	      4.61645881	     -1.85850988	      3.18417896	     -2.09088427	     -2.72003600	     -7.59591403	     11.80115201	     11.80115201	     18.98712901	     -6.67249639	     -1.80688171	     -8.35904539	      6.34869477	      2.82726559	    -15.82199700	    -11.93037896	    -12.21236416	     22.71043007	     46.86696083	      0.00000000	      0.00000000	     22.47968865	    -14.19695126	    -11.40112129	     79.45218430	     47.43110413	      0.00000000	      0.00000000
     21.54885714	     -3.61398848	     -3.45070853	     -3.54412194	      0.84641595	      0.92111949	      0.46258573	     27.74559070	     -1.57401921	    -10.82276759	     21.99466637	     21.99466637	      4.91928428	     -1.68537932	      3.11106899	     -2.99021527	     -2.95164640	     -7.66474050	     11.70966888	     11.70966888	     19.50678155	     -6.59627142	     -1.74229423	     -8.40389995	      6.55744986	      2.87858678	    -15.63046100	    -12.08790348	    -12.34116960	     22.73364122	     46.88087337	      0.00000000	      0.00000000	     22.10780096	    -14.09563017	    -11.36671629	     79.75400675	     47.43653341	      0.00000000	      0.00000000
     21.56078571	     -3.61061259	     -3.46733978	     -3.64565544	      0.84755100	      0.91961703	      0.46491397	     27.27527446	     -1.41424063	    -11.24740390	     22.09159424	     22.09159424	      4.85027853	     -1.63382404	      1.81943387	     -3.47729853	     -3.14392619	     -8.05519121	     12.06325493	     12.06325493	     20.90885261	     -5.74775659	      0.07646965	     -8.22764525	      6.55099676	      2.36547238	    -14.69031925	    -12.10788260	    -13.37454246	     22.28724685	     47.01049523	      0.00000000	      0.00000000	     20.98114571	    -14.46248491	    -11.88496604	     81.43745602	     47.54182034	      0.00000000	      0.00000000
     21.57271429	     -3.54602331	     -3.53909481	     -3.72504503	      0.84872848	      0.91828974	      0.46730816	     26.83011952	     -1.19613564	    -11.48265863	     22.55082866	     22.55082866	      5.12771013	     -1.87581194	      1.52650862	     -4.06477437	     -3.34251388	     -8.08476641	     12.25810863	     12.25810863	     21.28441592	     -5.90238322	      0.08434446	     -8.07549377	      6.67917176	      2.49580041	    -14.29088689	    -12.15699688	    -13.42119171	     22.35229842	     47.01662899	      0.00000000	      0.00000000	     20.69839044	    -14.28095883	    -11.82362425	     81.27017187	     47.53653857	      0.00000000	      0.00000000
     21.58464286	     -3.49402878	     -3.63905315	     -3.80858468	      0.84988044	      0.91712337	      0.46986974	     26.40912282	     -0.94166225	    -11.62789655	     23.11664329	     23.11664329	      5.44811195	     -2.10910221	      1.15426213	     -4.54672294	     -3.60182684	     -8.08686187	     12.62877293	     12.62877293	     21.63388793	     -6.10836432	      0.10083563	     -7.94470705	      6.77926565	      2.63189450	    -13.75449090	    -12.16759114	    -13.45086950	     22.47215195	     47.01991336	      0.00000000	      0.00000000	     20.29170212	    -14.04855505	    -11.72305123	     81.07710861	     47.52657928	      0.00000000	      0.00000000
     21.59657143	     -3.51531887	     -3.70054833	     -3.78487522	      0.85083899	      0.91596379	      0.47238098	     26.16467091	     -0.76138907	    -11.62690055	     23.86718018	     23.86718018	      5.62508476	     -2.59630498	      0.16970592	     -4.51174982	     -3.92206531	     -8.07392915	     13.78587223	     13.78587223	     22.20900830	     -6.35943166	      0.42594218	     -7.74041172	      6.89036605	      2.53113057	    -12.87758564	    -12.17801363	    -13.60275267	     22.45551217	     47.04502186	      0.00000000	      0.00000000	     19.78612734	    -14.03382315	    -11.69794288	     80.74177845	     47.52650883	      0.00000000	      0.00000000
     21.60850000	     -3.40461909	     -3.79537047	     -3.83632511	      0.85202087	      0.91553560	      0.47504965	     25.62109899	     -0.49612613	    -11.51832296	     24.35286457	     24.35286457	      6.03243374	     -2.71943632	     -0.19775112	     -4.88466766	     -4.21308336	     -8.04541760	     14.45044549	     14.45044549	     22.35740906	     -6.64838971	      0.42080556	     -7.68291122	      6.99330814	      2.75248321	    -12.11299238	    -12.11385688	    -13.60376525	     22.65960300	     47.04381875	      0.00000000	      0.00000000	     19.17739038	    -13.60225093	    -11.52110362	     80.50151409	     47.50843654	      0.00000000	      0.00000000
     21.62042857	     -3.45470156	     -3.95873621	     -3.72560128	      0.85258713	      0.91492375	      0.47770947	     25.37043592	     -0.19637676	    -11.47853112	     24.95443454	     24.95443454	      6.29779453	     -3.25457800	     -0.95434492	     -4.27010544	     -4.75958362	     -7.83960659	     16.56739553	     16.56739553	     22.69572245	     -7.34590030	      0.32151742	     -7.55257604	      7.13608572	      2.59792632	    -11.02269535	    -12.15426986	    -13.70890031	     22.73412877	     47.06224356	      0.00000000	      0.00000000	     18.63094868	    -13.55308841	    -11.49379731	     80.04480239	     47.50305600	      0.00000000	      0.00000000
